<svg width="25" height="13" viewBox="0 0 25 13" fill="none" xmlns="http://www.w3.org/2000/svg">
<path opacity="0.3" fill-rule="evenodd" clip-rule="evenodd" d="M6.42321 0.992579C6.52327 1.0341 6.61415 1.09495 6.69065 1.17165C6.76735 1.24815 6.82821 1.33904 6.86973 1.4391C6.91125 1.53916 6.93262 1.64642 6.93262 1.75475C6.93262 1.86309 6.91125 1.97035 6.86973 2.07041C6.82821 2.17047 6.76735 2.26136 6.69065 2.33786L3.15402 5.87316H23.3834C23.6019 5.87316 23.8114 5.95993 23.9658 6.11438C24.1203 6.26884 24.207 6.47832 24.207 6.69675C24.207 6.91518 24.1203 7.12467 23.9658 7.27912C23.8114 7.43358 23.6019 7.52035 23.3834 7.52035H3.15487L6.69065 11.0548C6.8453 11.2094 6.93219 11.4192 6.93219 11.6379C6.93219 11.8566 6.8453 12.0664 6.69065 12.221C6.53601 12.3757 6.32626 12.4625 6.10755 12.4625C5.88884 12.4625 5.67909 12.3757 5.52444 12.221L0.58287 7.27943C0.506172 7.20293 0.44532 7.11204 0.403801 7.01198C0.362282 6.91193 0.34091 6.80466 0.34091 6.69633C0.34091 6.588 0.362282 6.48073 0.403801 6.38067C0.44532 6.28061 0.506172 6.18973 0.58287 6.11322L5.52444 1.17165C5.60095 1.09495 5.69183 1.0341 5.79189 0.992579C5.89195 0.951059 5.99922 0.929688 6.10755 0.929688C6.21588 0.929688 6.32315 0.951059 6.42321 0.992579Z" fill="black"/>
</svg>
