<svg width="40" height="20" viewBox="0 0 40 20" fill="none" xmlns="http://www.w3.org/2000/svg">
<path fill-rule="evenodd" clip-rule="evenodd" d="M29.4627 0.40136C29.2996 0.46905 29.1514 0.568258 29.0267 0.6933C28.9016 0.818026 28.8024 0.966196 28.7347 1.12932C28.6671 1.29245 28.6322 1.46733 28.6322 1.64394C28.6322 1.82055 28.6671 1.99543 28.7347 2.15856C28.8024 2.32169 28.9016 2.46986 29.0267 2.59458L34.792 8.35771H1.81537C1.45926 8.35771 1.11774 8.49918 0.865928 8.75098C0.614121 9.00279 0.472656 9.34432 0.472656 9.70043C0.472656 10.0565 0.614121 10.3981 0.865928 10.6499C1.11774 10.9017 1.45926 11.0431 1.81537 11.0431H34.7916L29.0267 16.8059C28.7746 17.058 28.6329 17.3999 28.6329 17.7565C28.6329 18.1131 28.7746 18.455 29.0267 18.7071C29.2788 18.9593 29.6208 19.1009 29.9773 19.1009C30.3339 19.1009 30.6758 18.9593 30.928 18.7071L38.9842 10.6509C39.1093 10.5261 39.2085 10.378 39.2762 10.2148C39.3439 10.0517 39.3787 9.87683 39.3787 9.70022C39.3787 9.52361 39.3439 9.34873 39.2762 9.1856C39.2085 9.02248 39.1093 8.87431 38.9842 8.74958L30.928 0.6933C30.8032 0.568258 30.6551 0.46905 30.4919 0.40136C30.3288 0.33367 30.1539 0.298828 29.9773 0.298828C29.8007 0.298828 29.6258 0.33367 29.4627 0.40136Z" fill="black"/>
</svg>
